<svg width="250" height="250" viewBox="0 0 250 250" fill="none" xmlns="http://www.w3.org/2000/svg">
<path d="M218.424 125C218.424 176.596 176.596 218.424 125 218.424C73.4036 218.424 31.5764 176.596 31.5764 125C31.5764 73.4036 73.4036 31.5764 125 31.5764C176.596 31.5764 218.424 73.4036 218.424 125ZM84.8279 125C84.8279 147.186 102.814 165.172 125 165.172C147.186 165.172 165.172 147.186 165.172 125C165.172 102.814 147.186 84.8279 125 84.8279C102.814 84.8279 84.8279 102.814 84.8279 125Z" fill="#1C1C1C"/>
<path d="M153.171 35.244C153.839 38.3481 151.473 41.2766 148.298 41.2766H101.702C98.5273 41.2766 96.1614 38.3481 96.8286 35.244L103.558 3.93747C104.051 1.64047 106.082 0 108.431 0H141.569C143.918 0 145.949 1.64047 146.442 3.93747L153.171 35.244Z" fill="#1C1C1C"/>
<path d="M96.8286 214.756C96.1614 211.652 98.5273 208.723 101.702 208.723H148.298C151.473 208.723 153.839 211.652 153.171 214.756L146.442 246.063C145.949 248.36 143.918 250 141.569 250H108.431C106.082 250 104.051 248.36 103.558 246.063L96.8286 214.756Z" fill="#1C1C1C"/>
<path d="M35.244 96.8286C38.3481 96.1614 41.2766 98.5273 41.2766 101.702V148.298C41.2766 151.473 38.3481 153.839 35.244 153.171L3.93747 146.442C1.64047 145.949 0 143.918 0 141.569V108.431C0 106.082 1.64047 104.051 3.93747 103.558L35.244 96.8286Z" fill="#1C1C1C"/>
<path d="M214.756 153.171C211.652 153.839 208.723 151.473 208.723 148.298V101.702C208.723 98.5273 211.652 96.1614 214.756 96.8286L246.063 103.558C248.36 104.051 250 106.082 250 108.431V141.569C250 143.918 248.36 145.949 246.063 146.442L214.756 153.171Z" fill="#1C1C1C"/>
<path d="M41.6127 168.547C43.3358 165.88 47.0796 165.482 49.3247 167.727L82.2726 200.675C84.5176 202.92 84.1198 206.664 81.4531 208.387L54.5579 225.766C52.5845 227.041 49.9887 226.765 48.3274 225.104L24.8959 201.673C23.2346 200.011 22.9588 197.415 24.2339 195.442L41.6127 168.547Z" fill="#1C1C1C"/>
<path d="M208.387 81.4531C206.664 84.1198 202.92 84.5176 200.675 82.2726L167.727 49.3246C165.482 47.0796 165.88 43.3358 168.547 41.6127L195.442 24.2339C197.415 22.9587 200.011 23.2346 201.673 24.8959L225.104 48.3274C226.765 49.9887 227.041 52.5845 225.766 54.5578L208.387 81.4531Z" fill="#1C1C1C"/>
<path d="M168.547 208.387C165.88 206.664 165.482 202.92 167.727 200.675L200.675 167.727C202.92 165.482 206.664 165.88 208.387 168.547L225.766 195.442C227.041 197.415 226.765 200.011 225.104 201.673L201.673 225.104C200.011 226.765 197.415 227.041 195.442 225.766L168.547 208.387Z" fill="#1C1C1C"/>
<path d="M81.4531 41.6127C84.1198 43.3359 84.5176 47.0796 82.2726 49.3247L49.3246 82.2726C47.0796 84.5176 43.3358 84.1198 41.6127 81.4531L24.2339 54.5579C22.9587 52.5845 23.2346 49.9887 24.8959 48.3274L48.3274 24.8959C49.9887 23.2346 52.5845 22.9588 54.5579 24.2339L81.4531 41.6127Z" fill="#1C1C1C"/>
</svg>
