<svg width="20" height="22" viewBox="0 0 20 22" fill="none" xmlns="http://www.w3.org/2000/svg">
<path d="M8.0712 21.2032C7.78533 21.2032 7.53778 21.108 7.32853 20.9174C7.11929 20.7268 6.99602 20.4906 6.9587 20.2087L6.66468 17.9375C6.47989 17.8661 6.30462 17.7801 6.13885 17.6793C5.9731 17.5786 5.81051 17.4716 5.65108 17.3581L3.5299 18.2402C3.26468 18.3562 2.99847 18.3696 2.73125 18.2807C2.46403 18.1917 2.25579 18.023 2.10653 17.7744L0.196726 14.4418C0.047459 14.1933 0.000817291 13.9281 0.0568006 13.6462C0.112767 13.3643 0.254701 13.1384 0.482601 12.9685L2.30978 11.5793C2.29709 11.4786 2.29075 11.3821 2.29075 11.2897V10.7103C2.29075 10.6179 2.29709 10.5214 2.30978 10.4206L0.482601 9.0375C0.254701 8.86756 0.112767 8.64066 0.0568006 8.3568C0.000800625 8.07291 0.0474423 7.8067 0.196726 7.55815L2.10653 4.23152C2.25579 3.98695 2.46403 3.8202 2.73125 3.73125C2.99847 3.6423 3.26468 3.6538 3.5299 3.76575L5.66305 4.64782C5.82247 4.53442 5.98623 4.42836 6.15435 4.32962C6.32247 4.23089 6.49258 4.14583 6.66468 4.07445L6.9587 1.7913C6.99602 1.50941 7.11929 1.27318 7.32853 1.0826C7.53778 0.892014 7.78533 0.796722 8.0712 0.796722H11.9288C12.2147 0.796722 12.4622 0.892014 12.6715 1.0826C12.8807 1.27318 13.004 1.50941 13.0413 1.7913L13.3353 4.07445C13.5201 4.14583 13.6954 4.23089 13.8612 4.32962C14.0269 4.42836 14.1895 4.53442 14.3489 4.64782L16.4701 3.76575C16.7353 3.6538 17.0015 3.6423 17.2688 3.73125C17.536 3.8202 17.7442 3.98695 17.8935 4.23152L19.8033 7.55815C19.9525 7.8067 19.9992 8.07291 19.9432 8.3568C19.8872 8.64066 19.7433 8.86756 19.5114 9.0375L17.6843 10.4206C17.6969 10.5214 17.7033 10.6179 17.7033 10.7103V11C17.7033 11.1007 17.7023 11.1973 17.7003 11.2897C17.6983 11.3821 17.6846 11.4786 17.6593 11.5793L19.4864 12.9625C19.7183 13.1324 19.8622 13.3593 19.9182 13.6432C19.9742 13.9271 19.9275 14.1933 19.7783 14.4418L17.8625 17.7614C17.7132 18.01 17.5018 18.1799 17.2283 18.2712C16.9547 18.3625 16.6853 18.3522 16.4201 18.2402L14.337 17.3581C14.1775 17.4716 14.0138 17.5786 13.8457 17.6793C13.6775 17.7801 13.5074 17.8661 13.3353 17.9375L13.0413 20.2087C13.004 20.4906 12.8807 20.7268 12.6715 20.9174C12.4622 21.108 12.2147 21.2033 11.9288 21.2033L8.0712 21.2032ZM10.0321 14.5C10.9987 14.5 11.8237 14.1583 12.5071 13.475C13.1904 12.7917 13.5321 11.9667 13.5321 11C13.5321 10.0333 13.1904 9.20833 12.5071 8.525C11.8237 7.84166 10.9987 7.5 10.0321 7.5C9.05273 7.5 8.22455 7.84166 7.54755 8.525C6.87057 9.20833 6.53208 10.0333 6.53208 11C6.53208 11.9667 6.87057 12.7917 7.54755 13.475C8.22455 14.1583 9.05273 14.5 10.0321 14.5Z" fill="white"/>
</svg>
