<svg width="24" height="24" viewBox="0 0 24 24" fill="none" xmlns="http://www.w3.org/2000/svg">
<path d="M16.9641 23.2582C16.6449 23.2582 16.3755 23.1452 16.156 22.9193C15.9364 22.6934 15.8266 22.4208 15.8266 22.1016C15.8266 21.7824 15.9364 21.513 16.156 21.2935C16.3755 21.0739 16.6449 20.9641 16.9641 20.9641C18.0641 20.9641 19.0058 20.5725 19.7891 19.7891C20.5725 19.0058 20.9641 18.0641 20.9641 16.9641C20.9641 16.6449 21.0771 16.3724 21.303 16.1465C21.5289 15.9206 21.8014 15.8076 22.1206 15.8076C22.4398 15.8076 22.7092 15.9206 22.9288 16.1465C23.1484 16.3724 23.2581 16.6449 23.2581 16.9641C23.2581 18.7065 22.6448 20.1911 21.418 21.418C20.1911 22.6448 18.7065 23.2582 16.9641 23.2582ZM1.89837 8.17338C1.57916 8.17338 1.3066 8.06359 1.0807 7.84403C0.8548 7.62446 0.74185 7.35508 0.74185 7.03588C0.74185 5.29348 1.35525 3.80887 2.58205 2.58205C3.80887 1.35525 5.29348 0.741852 7.03588 0.741852C7.35508 0.741852 7.62762 0.851635 7.85352 1.0712C8.07944 1.29077 8.1924 1.56015 8.1924 1.87935C8.1924 2.19855 8.07944 2.4711 7.85352 2.697C7.62762 2.92292 7.35508 3.03588 7.03588 3.03588C5.93588 3.03588 4.99421 3.42754 4.21087 4.21088C3.42754 4.99421 3.03587 5.93588 3.03587 7.03588C3.03587 7.35508 2.92609 7.62446 2.70653 7.84403C2.48696 8.06359 2.21757 8.17338 1.89837 8.17338ZM5.0788 18.9641C3.52228 17.4076 2.74003 15.5378 2.73205 13.3546C2.72408 11.1715 3.49637 9.30363 5.0489 7.75108L6.6424 6.13858C6.74565 6.03533 6.86956 5.9837 7.01413 5.9837C7.15869 5.9837 7.28261 6.03533 7.38587 6.13858C7.86921 6.62191 8.10689 7.20742 8.09892 7.8951C8.09094 8.58279 7.84727 9.1663 7.36792 9.64565L6.9462 10.0674C6.7183 10.2953 6.60435 10.5647 6.60435 10.8756C6.60435 11.1864 6.7183 11.4558 6.9462 11.6837L7.74455 12.4821C8.15398 12.8915 8.3587 13.3856 8.3587 13.9644C8.3587 14.5432 8.15398 15.0373 7.74455 15.4467C7.58658 15.6047 7.5076 15.7968 7.5076 16.0231C7.5076 16.2494 7.58658 16.4415 7.74455 16.5995C7.90253 16.7574 8.09466 16.8364 8.32092 16.8364C8.54719 16.8364 8.73931 16.7574 8.89727 16.5995C9.62662 15.8701 9.9913 14.9949 9.9913 13.9739C9.9913 12.9529 9.62028 12.0714 8.87825 11.3294L8.41792 10.869L8.50162 10.7853C8.95091 10.336 9.2722 9.82961 9.4655 9.26603C9.6588 8.70244 9.73479 8.12735 9.69348 7.54075L13.9951 3.2451C14.2111 3.02917 14.4655 2.9202 14.7584 2.9182C15.0514 2.91622 15.3058 3.02319 15.5217 3.23913C15.7377 3.45508 15.8456 3.71051 15.8456 4.00543C15.8456 4.30036 15.7377 4.5558 15.5217 4.77175L10.8169 9.47663L11.7891 10.4489L17.844 4.40708C18.06 4.19113 18.3122 4.08315 18.6008 4.08315C18.8894 4.08315 19.1417 4.19113 19.3576 4.40708C19.5736 4.62301 19.6805 4.87428 19.6785 5.16088C19.6765 5.44746 19.5676 5.69873 19.3516 5.91468L13.3157 11.9756L14.2761 12.9419L19.606 7.61195C19.8219 7.39602 20.0774 7.28904 20.3723 7.29103C20.6672 7.29303 20.9227 7.40199 21.1386 7.61793C21.3545 7.83388 21.4625 8.08732 21.4625 8.37825C21.4625 8.6692 21.3545 8.92265 21.1386 9.1386L15.8027 14.4685L16.775 15.4408L20.7772 11.4386C20.9931 11.2227 21.2475 11.1147 21.5405 11.1147C21.8334 11.1147 22.0879 11.2227 22.3038 11.4386C22.5197 11.6545 22.6277 11.909 22.6277 12.2019C22.6277 12.4948 22.5197 12.7493 22.3038 12.9652L16.2739 18.9761C14.7214 20.5286 12.8555 21.3029 10.6763 21.2989C8.49718 21.2949 6.63133 20.5167 5.0788 18.9641Z" fill="white"/>
</svg>
